Format : AVI
Format/Info : Audio Video Interleave
File size : 1.46 GiB
Duration : 1h 24mn
Overall bit rate : 2 467 Kbps
Writing library : VirtualDub build 32839/release

Video
ID : 0
Format : MPEG-4 Visual
Format profile : Advanced Simple@L5
Format settings, BVOP : 2
Format settings, QPel : No
Format settings, GMC : No warppoints
Format settings, Matrix : Default (H.263)
Muxing mode : Packed bitstream
Codec ID : XVID
Codec ID/Hint : XviD
Duration : 1h 24mn
Bit rate : 2 329 Kbps
Width : 720 pixels
Height : 304 pixels
Display aspect ratio : 2.35:1
Frame rate : 25.000 fps
Color space : YUV
Chroma subsampling : 4:2:0
Bit depth : 8 bits
Scan type : Progressive
Compression mode : Lossy
Bits/(Pixel*Frame) : 0.426
Stream size : 1.37 GiB (94%)
Writing library : XviD 63

Audio
ID : 1
Format : MPEG Audio
Format version : Version 1
Format profile : Layer 3
Mode : Joint stereo
Mode extension : MS Stereo
Codec ID : 55
Codec ID/Hint : MP3
Duration : 1h 24mn
Bit rate mode : Constant
Bit rate : 128 Kbps
Channel(s) : 2 channels
Sampling rate : 48.0 KHz
Compression mode : Lossy
Stream size : 77.3 MiB (5%)
Alignment : Split accross interleaves
Interleave, duration : 40 ms (1.00 video frame)
Interleave, preload duration : 500 ms


 
http://www.imdb.com/title/tt1305591/







Users: 4.1/10 (1,467 votes) 42 reviews | Critics: 93 reviews Metascore: 49/100 (based on 22 reviews from Metacritic.com)

A young boy named Milo gains a deeper appreciation for his mom after Martians come to Earth to take her away.
Director:
Simon Wells
Writers:
Simon Wells (screenplay), Wendy Wells (screenplay), and 1 more credit »
Stars:
Seth Green, Joan Cusack and Dan Fogler
















Source Used


Mars Needs Moms PAL DVDR-iGNiTiON ........Thanks


Greetz to IMAGiNE,Flawl3ss,DiLLoN,BDK,NOiR,TOXiC,THC,Ez,Rx,Boobyblue,TaRiQ786,LKRG,EP1C
